<svg width="512" height="512" viewBox="0 0 512 512" fill="none" xmlns="http://www.w3.org/2000/svg">
<g filter="url(#filter0_i_14_197)">
<path d="M240.484 8.60243C250.136 3.25117 261.864 3.25118 271.516 8.60243L287.481 17.4535C293.727 20.9164 300.952 22.1903 308.006 21.0725L326.035 18.2155C336.935 16.4881 347.956 20.4995 355.195 28.8292L367.17 42.6066C371.855 47.997 378.209 51.6652 385.219 53.0273L403.138 56.5089C413.972 58.6138 422.956 66.1526 426.91 76.4561L433.451 93.4982C436.009 100.166 440.725 105.786 446.847 109.464L462.495 118.864C471.955 124.547 477.819 134.704 478.011 145.739L478.328 163.99C478.452 171.131 480.961 178.024 485.456 183.574L496.945 197.759C503.891 206.336 505.927 217.886 502.333 228.32L496.389 245.579C494.063 252.332 494.063 259.668 496.389 266.421L502.333 283.68C505.927 294.114 503.891 305.664 496.945 314.241L485.456 328.426C480.961 333.976 478.452 340.869 478.328 348.01L478.011 366.261C477.819 377.296 471.955 387.453 462.495 393.136L446.847 402.536C440.725 406.214 436.009 411.834 433.451 418.502L426.91 435.544C422.956 445.847 413.972 453.386 403.138 455.491L385.219 458.973C378.209 460.335 371.855 464.003 367.17 469.393L355.195 483.171C347.956 491.501 336.935 495.512 326.035 493.785L308.006 490.928C300.952 489.81 293.727 491.084 287.481 494.547L271.516 503.398C261.864 508.749 250.136 508.749 240.484 503.398L224.519 494.547C218.273 491.084 211.048 489.81 203.995 490.928L185.966 493.785C175.065 495.512 164.044 491.501 156.805 483.171L144.83 469.393C140.145 464.003 133.792 460.335 126.781 458.973L108.862 455.491C98.0285 453.386 89.044 445.847 85.0899 435.544L78.5496 418.502C75.9908 411.834 71.275 406.214 65.1531 402.536L49.5056 393.136C40.0452 387.453 34.1811 377.296 33.9894 366.261L33.6723 348.01C33.5482 340.869 31.0391 333.976 26.5442 328.426L15.0554 314.241C8.10935 305.664 6.07276 294.114 9.66665 283.68L15.611 266.421C17.9367 259.668 17.9367 252.332 15.611 245.579L9.66664 228.32C6.07276 217.886 8.10936 206.336 15.0554 197.759L26.5442 183.574C31.0391 178.024 33.5482 171.131 33.6723 163.99L33.9894 145.739C34.1811 134.704 40.0452 124.547 49.5056 118.864L65.1531 109.464C71.275 105.786 75.9908 100.166 78.5496 93.4982L85.0899 76.4561C89.0441 66.1526 98.0284 58.6138 108.862 56.5088L126.781 53.0273C133.792 51.6652 140.145 47.997 144.83 42.6066L156.805 28.8292C164.044 20.4994 175.065 16.4881 185.966 18.2155L203.995 21.0725C211.048 22.1903 218.273 20.9164 224.519 17.4535L240.484 8.60243Z" fill="white"/>
</g>
<path d="M137 202C129.268 202 123 208.268 123 216L123 345C123 352.732 129.268 359 137 359H239C242.314 359 245 356.314 245 353L245 321C245 312.163 252.163 305 261 305H385C388.314 305 391 302.314 391 299V216C391 208.268 384.732 202 377 202H137Z" fill="#737373"/>
<rect x="109" y="132" width="294" height="60" rx="16" fill="#1E1E1E"/>
<rect x="256" y="316" width="147" height="64" rx="10" fill="#0C0D0D"/>
<defs>
<filter id="filter0_i_14_197" x="7.922" y="4.58899" width="496.156" height="502.822" filterUnits="userSpaceOnUse" color-interpolation-filters="sRGB">
<feFlood flood-opacity="0" result="BackgroundImageFix"/>
<feBlend mode="normal" in="SourceGraphic" in2="BackgroundImageFix" result="shape"/>
<feColorMatrix in="SourceAlpha" type="matrix" values="0 0 0 0 0 0 0 0 0 0 0 0 0 0 0 0 0 0 127 0" result="hardAlpha"/>
<feOffset/>
<feGaussianBlur stdDeviation="4"/>
<feComposite in2="hardAlpha" operator="arithmetic" k2="-1" k3="1"/>
<feColorMatrix type="matrix" values="0 0 0 0 0 0 0 0 0 0 0 0 0 0 0 0 0 0 0.5 0"/>
<feBlend mode="normal" in2="shape" result="effect1_innerShadow_14_197"/>
</filter>
</defs>
</svg>
