<svg
  width="512"
  height="512"
  viewBox="0 0 512 512"
  fill="none"
  xmlns="http://www.w3.org/2000/svg"
>
  <rect width="512" height="512" fill="white" />
  <path
    d="M137 202C129.268 202 123 208.268 123 216L123 345C123 352.732 129.268 359 137 359H239C242.314 359 245 356.314 245 353L245 321C245 312.163 252.163 305 261 305H385C388.314 305 391 302.314 391 299V216C391 208.268 384.732 202 377 202H137Z"
    fill="#737373"
  />
  <rect x="109" y="132" width="294" height="60" rx="16" fill="#1E1E1E" />
  <rect x="256" y="316" width="147" height="64" rx="10" fill="#0C0D0D" />
</svg>
